<svg width="15" height="22" viewBox="0 0 15 22" fill="none" xmlns="http://www.w3.org/2000/svg">
<path d="M14.4895 7.24609H7.24414V14.4914H14.4895V7.24609Z" fill="#0B3780"/>
<path d="M14.4953 7.24535H7.25V1.34855C7.25 0.60212 7.85212 0 8.59855 0H14.2067C14.366 0 14.4953 0.129381 14.4953 0.288619V7.24535Z" fill="#64C4AF"/>
<path d="M13.1269 21.7414H7.53862C7.37938 21.7414 7.25 21.6121 7.25 21.4528V14.4961H14.4953V20.378C14.4953 21.1343 13.8833 21.7464 13.1269 21.7464" fill="#1589CA"/>
<path d="M7.24534 14.4953H1.35353C0.607097 14.4953 0 13.8882 0 13.1418V7.54857C0 7.38436 0.134353 7.25 0.298567 7.25H7.25032V14.4953H7.24534Z" fill="#F48220"/>
</svg>